<?xml version="1.0" encoding="utf-8"?>
<!-- Generator: Adobe Illustrator 19.0.0, SVG Export Plug-In . SVG Version: 6.00 Build 0)  -->
<svg version="1.1" id="Warstwa_1" xmlns="http://www.w3.org/2000/svg" xmlns:xlink="http://www.w3.org/1999/xlink" x="0px" y="0px"
	 viewBox="-247 370.9 100 100" style="enable-background:new -247 370.9 100 100;" xml:space="preserve">
<style type="text/css">
	.st0{opacity:0.25;}
	.st1{opacity:0.5;fill:#FFFFFF;enable-background:new    ;}
	.st2{fill:#FFFFFF;}
</style>
<g class="st0">
	<g>
		<path class="st1" d="M-151,465.9h4v1h-4v4h-1v-4h-9v4h-1v-4h-9v4h-1v-4h-9v4h-1v-4h-9v4h-1v-4h-9v4h-1v-4h-9v4h-1v-4h-9v4h-1v-4
			h-9v4h-1v-4h-15v-1h15v-9h-15v-1h15v-9h-15v-1h15v-9h-15v-1h15v-9h-15v-1h15v-9h-15v-1h15v-9h-15v-1h15v-9h-15v-1h15v-9h-15v-1h15
			v-15h1v15h9v-15h1v15h9v-15h1v15h9v-15h1v15h9v-15h1v15h9v-15h1v15h9v-15h1v15h9v-15h1v15h9v-15h1v15h4v1h-4v9h4v1h-4v9h4v1h-4v9
			h4v1h-4v9h4v1h-4v9h4v1h-4v9h4v1h-4v9h4v1h-4V465.9z M-152,465.9v-9h-9v9H-152z M-162,465.9v-9h-9v9H-162z M-172,465.9v-9h-9v9
			H-172z M-182,465.9v-9h-9v9H-182z M-192,465.9v-9h-9v9H-192z M-202,465.9v-9h-9v9H-202z M-212,465.9v-9h-9v9H-212z M-222,465.9v-9
			h-9v9H-222z M-231,455.9h9v-9h-9V455.9z M-221,455.9h9v-9h-9V455.9z M-211,455.9h9v-9h-9V455.9z M-201,455.9h9v-9h-9V455.9z
			 M-191,455.9h9v-9h-9V455.9z M-181,455.9h9v-9h-9V455.9z M-171,455.9h9v-9h-9V455.9z M-161,455.9h9v-9h-9V455.9z M-152,445.9v-9
			h-9v9H-152z M-162,445.9v-9h-9v9H-162z M-172,445.9v-9h-9v9H-172z M-182,445.9v-9h-9v9H-182z M-192,445.9v-9h-9v9H-192z
			 M-202,445.9v-9h-9v9H-202z M-212,445.9v-9h-9v9H-212z M-222,445.9v-9h-9v9H-222z M-231,435.9h9v-9h-9V435.9z M-221,435.9h9v-9h-9
			V435.9z M-211,435.9h9v-9h-9V435.9z M-201,435.9h9v-9h-9V435.9z M-191,435.9h9v-9h-9V435.9z M-181,435.9h9v-9h-9V435.9z
			 M-171,435.9h9v-9h-9V435.9z M-161,435.9h9v-9h-9V435.9z M-152,425.9v-9h-9v9H-152z M-162,425.9v-9h-9v9H-162z M-172,425.9v-9h-9
			v9H-172z M-182,425.9v-9h-9v9H-182z M-192,425.9v-9h-9v9H-192z M-202,425.9v-9h-9v9H-202z M-212,425.9v-9h-9v9H-212z M-222,425.9
			v-9h-9v9H-222z M-231,415.9h9v-9h-9V415.9z M-221,415.9h9v-9h-9V415.9z M-211,415.9h9v-9h-9V415.9z M-201,415.9h9v-9h-9V415.9z
			 M-191,415.9h9v-9h-9V415.9z M-181,415.9h9v-9h-9V415.9z M-171,415.9h9v-9h-9V415.9z M-161,415.9h9v-9h-9V415.9z M-152,405.9v-9
			h-9v9H-152z M-162,405.9v-9h-9v9H-162z M-172,405.9v-9h-9v9H-172z M-182,405.9v-9h-9v9H-182z M-192,405.9v-9h-9v9H-192z
			 M-202,405.9v-9h-9v9H-202z M-212,405.9v-9h-9v9H-212z M-222,405.9v-9h-9v9H-222z M-231,395.9h9v-9h-9V395.9z M-221,395.9h9v-9h-9
			V395.9z M-211,395.9h9v-9h-9V395.9z M-201,395.9h9v-9h-9V395.9z M-191,395.9h9v-9h-9V395.9z M-181,395.9h9v-9h-9V395.9z
			 M-171,395.9h9v-9h-9V395.9z M-161,395.9h9v-9h-9V395.9z"/>
		<path class="st2" d="M-241,375.9v-5h-1v5h-5v1h5v94h1v-94h94v-1H-241z"/>
	</g>
</g>
</svg>
