<svg width="175" height="124" viewBox="0 0 175 124" fill="none" xmlns="http://www.w3.org/2000/svg">
<path d="M103.024 38.954C103.348 38.39 103.828 37.922 104.464 37.55C105.112 37.166 105.862 36.974 106.714 36.974C107.59 36.974 108.382 37.184 109.09 37.604C109.81 38.024 110.374 38.618 110.782 39.386C111.19 40.142 111.394 41.024 111.394 42.032C111.394 43.028 111.19 43.916 110.782 44.696C110.374 45.476 109.81 46.082 109.09 46.514C108.382 46.946 107.59 47.162 106.714 47.162C105.874 47.162 105.13 46.976 104.482 46.604C103.846 46.22 103.36 45.746 103.024 45.182V51.68H101.386V37.136H103.024V38.954ZM109.72 42.032C109.72 41.288 109.57 40.64 109.27 40.088C108.97 39.536 108.562 39.116 108.046 38.828C107.542 38.54 106.984 38.396 106.372 38.396C105.772 38.396 105.214 38.546 104.698 38.846C104.194 39.134 103.786 39.56 103.474 40.124C103.174 40.676 103.024 41.318 103.024 42.05C103.024 42.794 103.174 43.448 103.474 44.012C103.786 44.564 104.194 44.99 104.698 45.29C105.214 45.578 105.772 45.722 106.372 45.722C106.984 45.722 107.542 45.578 108.046 45.29C108.562 44.99 108.97 44.564 109.27 44.012C109.57 43.448 109.72 42.788 109.72 42.032ZM115.188 38.738C115.476 38.174 115.884 37.736 116.412 37.424C116.952 37.112 117.606 36.956 118.374 36.956V38.648H117.942C116.106 38.648 115.188 39.644 115.188 41.636V47H113.55V37.136H115.188V38.738ZM124.567 47.162C123.643 47.162 122.803 46.952 122.047 46.532C121.303 46.112 120.715 45.518 120.283 44.75C119.863 43.97 119.653 43.07 119.653 42.05C119.653 41.042 119.869 40.154 120.301 39.386C120.745 38.606 121.345 38.012 122.101 37.604C122.857 37.184 123.703 36.974 124.639 36.974C125.575 36.974 126.421 37.184 127.177 37.604C127.933 38.012 128.527 38.6 128.959 39.368C129.403 40.136 129.625 41.03 129.625 42.05C129.625 43.07 129.397 43.97 128.941 44.75C128.497 45.518 127.891 46.112 127.123 46.532C126.355 46.952 125.503 47.162 124.567 47.162ZM124.567 45.722C125.155 45.722 125.707 45.584 126.223 45.308C126.739 45.032 127.153 44.618 127.465 44.066C127.789 43.514 127.951 42.842 127.951 42.05C127.951 41.258 127.795 40.586 127.483 40.034C127.171 39.482 126.763 39.074 126.259 38.81C125.755 38.534 125.209 38.396 124.621 38.396C124.021 38.396 123.469 38.534 122.965 38.81C122.473 39.074 122.077 39.482 121.777 40.034C121.477 40.586 121.327 41.258 121.327 42.05C121.327 42.854 121.471 43.532 121.759 44.084C122.059 44.636 122.455 45.05 122.947 45.326C123.439 45.59 123.979 45.722 124.567 45.722ZM132.661 35.534C132.349 35.534 132.085 35.426 131.869 35.21C131.665 34.994 131.563 34.73 131.563 34.418C131.563 34.106 131.665 33.842 131.869 33.626C132.085 33.41 132.349 33.302 132.661 33.302C132.973 33.302 133.231 33.41 133.435 33.626C133.651 33.842 133.759 34.106 133.759 34.418C133.759 34.73 133.651 34.994 133.435 35.21C133.231 35.426 132.973 35.534 132.661 35.534ZM133.471 49.142C133.471 50.018 133.249 50.66 132.805 51.068C132.361 51.476 131.713 51.68 130.861 51.68H129.907V50.294H130.591C131.047 50.294 131.365 50.204 131.545 50.024C131.737 49.844 131.833 49.538 131.833 49.106V37.136H133.471V49.142ZM145.243 41.69C145.243 42.002 145.225 42.332 145.189 42.68H137.305C137.365 43.652 137.695 44.414 138.295 44.966C138.907 45.506 139.645 45.776 140.509 45.776C141.217 45.776 141.805 45.614 142.273 45.29C142.753 44.954 143.089 44.51 143.281 43.958H145.045C144.781 44.906 144.253 45.68 143.461 46.28C142.669 46.868 141.685 47.162 140.509 47.162C139.573 47.162 138.733 46.952 137.989 46.532C137.257 46.112 136.681 45.518 136.261 44.75C135.841 43.97 135.631 43.07 135.631 42.05C135.631 41.03 135.835 40.136 136.243 39.368C136.651 38.6 137.221 38.012 137.953 37.604C138.697 37.184 139.549 36.974 140.509 36.974C141.445 36.974 142.273 37.178 142.993 37.586C143.713 37.994 144.265 38.558 144.649 39.278C145.045 39.986 145.243 40.79 145.243 41.69ZM143.551 41.348C143.551 40.724 143.413 40.19 143.137 39.746C142.861 39.29 142.483 38.948 142.003 38.72C141.535 38.48 141.013 38.36 140.437 38.36C139.609 38.36 138.901 38.624 138.313 39.152C137.737 39.68 137.407 40.412 137.323 41.348H143.551ZM146.794 42.05C146.794 41.03 146.998 40.142 147.406 39.386C147.814 38.618 148.378 38.024 149.098 37.604C149.83 37.184 150.664 36.974 151.6 36.974C152.812 36.974 153.808 37.268 154.588 37.856C155.38 38.444 155.902 39.26 156.154 40.304H154.39C154.222 39.704 153.892 39.23 153.4 38.882C152.92 38.534 152.32 38.36 151.6 38.36C150.664 38.36 149.908 38.684 149.332 39.332C148.756 39.968 148.468 40.874 148.468 42.05C148.468 43.238 148.756 44.156 149.332 44.804C149.908 45.452 150.664 45.776 151.6 45.776C152.32 45.776 152.92 45.608 153.4 45.272C153.88 44.936 154.21 44.456 154.39 43.832H156.154C155.89 44.84 155.362 45.65 154.57 46.262C153.778 46.862 152.788 47.162 151.6 47.162C150.664 47.162 149.83 46.952 149.098 46.532C148.378 46.112 147.814 45.518 147.406 44.75C146.998 43.982 146.794 43.082 146.794 42.05ZM160.337 38.486V44.3C160.337 44.78 160.439 45.122 160.643 45.326C160.847 45.518 161.201 45.614 161.705 45.614H162.911V47H161.435C160.523 47 159.839 46.79 159.383 46.37C158.927 45.95 158.699 45.26 158.699 44.3V38.486H157.421V37.136H158.699V34.652H160.337V37.136H162.911V38.486H160.337ZM168.388 47.162C167.632 47.162 166.954 47.036 166.354 46.784C165.754 46.52 165.28 46.16 164.932 45.704C164.584 45.236 164.392 44.702 164.356 44.102H166.048C166.096 44.594 166.324 44.996 166.732 45.308C167.152 45.62 167.698 45.776 168.37 45.776C168.994 45.776 169.486 45.638 169.846 45.362C170.206 45.086 170.386 44.738 170.386 44.318C170.386 43.886 170.194 43.568 169.81 43.364C169.426 43.148 168.832 42.938 168.028 42.734C167.296 42.542 166.696 42.35 166.228 42.158C165.772 41.954 165.376 41.66 165.04 41.276C164.716 40.88 164.554 40.364 164.554 39.728C164.554 39.224 164.704 38.762 165.004 38.342C165.304 37.922 165.73 37.592 166.282 37.352C166.834 37.1 167.464 36.974 168.172 36.974C169.264 36.974 170.146 37.25 170.818 37.802C171.49 38.354 171.85 39.11 171.898 40.07H170.26C170.224 39.554 170.014 39.14 169.63 38.828C169.258 38.516 168.754 38.36 168.118 38.36C167.53 38.36 167.062 38.486 166.714 38.738C166.366 38.99 166.192 39.32 166.192 39.728C166.192 40.052 166.294 40.322 166.498 40.538C166.714 40.742 166.978 40.91 167.29 41.042C167.614 41.162 168.058 41.3 168.622 41.456C169.33 41.648 169.906 41.84 170.35 42.032C170.794 42.212 171.172 42.488 171.484 42.86C171.808 43.232 171.976 43.718 171.988 44.318C171.988 44.858 171.838 45.344 171.538 45.776C171.238 46.208 170.812 46.55 170.26 46.802C169.72 47.042 169.096 47.162 168.388 47.162ZM108.802 71.21H103.33L102.322 74H100.594L105.13 61.526H107.02L111.538 74H109.81L108.802 71.21ZM108.334 69.878L106.066 63.542L103.798 69.878H108.334ZM120.312 65.486V71.3C120.312 71.78 120.414 72.122 120.618 72.326C120.822 72.518 121.176 72.614 121.68 72.614H122.886V74H121.41C120.498 74 119.814 73.79 119.358 73.37C118.902 72.95 118.674 72.26 118.674 71.3V65.486H117.396V64.136H118.674V61.652H120.312V64.136H122.886V65.486H120.312ZM129.172 74.162C128.248 74.162 127.408 73.952 126.652 73.532C125.908 73.112 125.32 72.518 124.888 71.75C124.468 70.97 124.258 70.07 124.258 69.05C124.258 68.042 124.474 67.154 124.906 66.386C125.35 65.606 125.95 65.012 126.706 64.604C127.462 64.184 128.308 63.974 129.244 63.974C130.18 63.974 131.026 64.184 131.782 64.604C132.538 65.012 133.132 65.6 133.564 66.368C134.008 67.136 134.23 68.03 134.23 69.05C134.23 70.07 134.002 70.97 133.546 71.75C133.102 72.518 132.496 73.112 131.728 73.532C130.96 73.952 130.108 74.162 129.172 74.162ZM129.172 72.722C129.76 72.722 130.312 72.584 130.828 72.308C131.344 72.032 131.758 71.618 132.07 71.066C132.394 70.514 132.556 69.842 132.556 69.05C132.556 68.258 132.4 67.586 132.088 67.034C131.776 66.482 131.368 66.074 130.864 65.81C130.36 65.534 129.814 65.396 129.226 65.396C128.626 65.396 128.074 65.534 127.57 65.81C127.078 66.074 126.682 66.482 126.382 67.034C126.082 67.586 125.932 68.258 125.932 69.05C125.932 69.854 126.076 70.532 126.364 71.084C126.664 71.636 127.06 72.05 127.552 72.326C128.044 72.59 128.584 72.722 129.172 72.722ZM142.569 72.578H148.689V74H140.625V72.704L146.709 62.876H140.697V61.454H148.653V62.75L142.569 72.578Z" fill="white"/>
<path d="M5.96 88.14C5.04 88.14 4.21333 87.98 3.48 87.66C2.76 87.3267 2.19333 86.8733 1.78 86.3C1.36667 85.7133 1.15333 85.04 1.14 84.28H3.08C3.14667 84.9333 3.41333 85.4867 3.88 85.94C4.36 86.38 5.05333 86.6 5.96 86.6C6.82667 86.6 7.50667 86.3867 8 85.96C8.50667 85.52 8.76 84.96 8.76 84.28C8.76 83.7467 8.61333 83.3133 8.32 82.98C8.02667 82.6467 7.66 82.3933 7.22 82.22C6.78 82.0467 6.18667 81.86 5.44 81.66C4.52 81.42 3.78 81.18 3.22 80.94C2.67333 80.7 2.2 80.3267 1.8 79.82C1.41333 79.3 1.22 78.6067 1.22 77.74C1.22 76.98 1.41333 76.3067 1.8 75.72C2.18667 75.1333 2.72667 74.68 3.42 74.36C4.12667 74.04 4.93333 73.88 5.84 73.88C7.14667 73.88 8.21333 74.2067 9.04 74.86C9.88 75.5133 10.3533 76.38 10.46 77.46H8.46C8.39333 76.9267 8.11333 76.46 7.62 76.06C7.12667 75.6467 6.47333 75.44 5.66 75.44C4.9 75.44 4.28 75.64 3.8 76.04C3.32 76.4267 3.08 76.9733 3.08 77.68C3.08 78.1867 3.22 78.6 3.5 78.92C3.79333 79.24 4.14667 79.4867 4.56 79.66C4.98667 79.82 5.58 80.0067 6.34 80.22C7.26 80.4733 8 80.7267 8.56 80.98C9.12 81.22 9.6 81.6 10 82.12C10.4 82.6267 10.6 83.32 10.6 84.2C10.6 84.88 10.42 85.52 10.06 86.12C9.7 86.72 9.16667 87.2067 8.46 87.58C7.75333 87.9533 6.92 88.14 5.96 88.14ZM21.8583 74.06V75.54H18.0583V88H16.2383V75.54H12.4183V74.06H21.8583ZM25.8786 74.06V82.88C25.8786 84.12 26.1786 85.04 26.7786 85.64C27.3919 86.24 28.2386 86.54 29.3186 86.54C30.3853 86.54 31.2186 86.24 31.8186 85.64C32.4319 85.04 32.7386 84.12 32.7386 82.88V74.06H34.5586V82.86C34.5586 84.02 34.3253 85 33.8586 85.8C33.3919 86.5867 32.7586 87.1733 31.9586 87.56C31.1719 87.9467 30.2853 88.14 29.2986 88.14C28.3119 88.14 27.4186 87.9467 26.6186 87.56C25.8319 87.1733 25.2053 86.5867 24.7386 85.8C24.2853 85 24.0586 84.02 24.0586 82.86V74.06H25.8786ZM41.9347 74.06C43.4547 74.06 44.768 74.3467 45.8747 74.92C46.9947 75.48 47.848 76.2867 48.4347 77.34C49.0347 78.3933 49.3347 79.6333 49.3347 81.06C49.3347 82.4867 49.0347 83.7267 48.4347 84.78C47.848 85.82 46.9947 86.62 45.8747 87.18C44.768 87.7267 43.4547 88 41.9347 88H37.5947V74.06H41.9347ZM41.9347 86.5C43.7347 86.5 45.108 86.0267 46.0547 85.08C47.0014 84.12 47.4747 82.78 47.4747 81.06C47.4747 79.3267 46.9947 77.9733 46.0347 77C45.088 76.0267 43.7214 75.54 41.9347 75.54H39.4147V86.5H41.9347ZM53.5553 74.06V88H51.7353V74.06H53.5553ZM62.9772 88.14C61.6839 88.14 60.5039 87.84 59.4372 87.24C58.3705 86.6267 57.5239 85.78 56.8972 84.7C56.2839 83.6067 55.9772 82.38 55.9772 81.02C55.9772 79.66 56.2839 78.44 56.8972 77.36C57.5239 76.2667 58.3705 75.42 59.4372 74.82C60.5039 74.2067 61.6839 73.9 62.9772 73.9C64.2839 73.9 65.4705 74.2067 66.5372 74.82C67.6039 75.42 68.4439 76.26 69.0572 77.34C69.6705 78.42 69.9772 79.6467 69.9772 81.02C69.9772 82.3933 69.6705 83.62 69.0572 84.7C68.4439 85.78 67.6039 86.6267 66.5372 87.24C65.4705 87.84 64.2839 88.14 62.9772 88.14ZM62.9772 86.56C63.9505 86.56 64.8239 86.3333 65.5972 85.88C66.3839 85.4267 66.9972 84.78 67.4372 83.94C67.8905 83.1 68.1172 82.1267 68.1172 81.02C68.1172 79.9 67.8905 78.9267 67.4372 78.1C66.9972 77.26 66.3905 76.6133 65.6172 76.16C64.8439 75.7067 63.9639 75.48 62.9772 75.48C61.9905 75.48 61.1105 75.7067 60.3372 76.16C59.5639 76.6133 58.9505 77.26 58.4972 78.1C58.0572 78.9267 57.8372 79.9 57.8372 81.02C57.8372 82.1267 58.0572 83.1 58.4972 83.94C58.9505 84.78 59.5639 85.4267 60.3372 85.88C61.1239 86.3333 62.0039 86.56 62.9772 86.56Z" fill="white"/>
<line x1="85.5" y1="100" x2="85.5" y2="8" stroke="white"/>
<path d="M27.1973 63L20.6543 31.9941L13.623 31.75C11.1165 31.6523 9.375 32.2057 8.39844 33.4102C7.7474 34.2565 7.17773 35.6562 6.68945 37.6094L0.341797 63H7.08008L8.64258 56.1152H18.6523L20.0195 63H27.1973ZM12.5977 38.8789C12.7604 38.4557 12.9883 38.2279 13.2812 38.1953H15.1367L17.4316 49.9141H10.0586L12.5977 38.8789ZM40.4785 63V38.293H47.5098V31.9941H26.2207V38.293H33.252V63H40.4785ZM69.9707 57.1895H57.2754C56.8848 57.1895 56.722 56.9941 56.7871 56.6035C56.8197 56.4408 56.8685 56.3105 56.9336 56.2129L70.8496 37.7559C70.8496 34.3379 69.4987 32.4173 66.7969 31.9941C66.4062 31.929 66.0319 31.8965 65.6738 31.8965L49.3164 31.9453V37.8047L61.4746 37.7559C61.8978 37.7559 62.0931 37.9512 62.0605 38.3418C62.028 38.472 61.9792 38.5859 61.9141 38.6836L47.7539 57.6777C47.7539 60.6074 48.8444 62.349 51.0254 62.9023C51.4811 63 51.9368 63.0488 52.3926 63.0488H69.9219L69.9707 57.1895Z" fill="white"/>
</svg>
